# xmcd
#
# Track frame offsets: 
#        150
#        14121
#        33794
#        51088
#        71943
#        87770
#        103070
#        117583
#        133210
#        144931
#        166505
#        180670
#        198707
#
# Disc length: 2960 seconds
#
# Revision: 2
# Processed by: cddbd v1.4PL0 Copyright (c) Steve Scherf et al.
# Submitted via: ExactAudioCopy v0.90b4
#
DISCID=ba0b8e0d
DTITLE=Kevin Deal - Kiss On The Breeze
DYEAR=2000
DGENRE=Country
TTITLE0=This Time
TTITLE1=Last Drop
TTITLE2=My Father's Redneck
TTITLE3=Can't Hold A Candle
TTITLE4=Kiss On The Breeze
TTITLE5=A Thousand Words (With Terri Hendrix)
TTITLE6=Things I've Done For Love
TTITLE7=Phone That Don't Ring
TTITLE8=Cracked Up
TTITLE9=Day The Blues Cried
TTITLE10=Smoke
TTITLE11=One Good Ride
TTITLE12=Honky Tonks And Churches
EXTD=YEAR: 2000 ID3G:   2
EXTT0=
EXTT1=
EXTT2=
EXTT3=
EXTT4=
EXTT5=
EXTT6=
EXTT7=
EXTT8=
EXTT9=
EXTT10=
EXTT11=
EXTT12=
PLAYORDER=
